STARTFONT 2.1
FONT MyTinyMono
SIZE 13 72 72
FONTBOUNDINGBOX 4 7 0 -2
STARTPROPERTIES 11
FOUNDRY "Fine"
FAMILY_NAME "Nabla Tiny Mono"
WEIGHT_NAME "Medium"
SLANT "R"
SETWIDTH_NAME "Normal"
SPACING "c"
CHARSET_REGISTRY "ISO10646"
CHARSET_ENCODING "1"
COPYRIGHT "Designer of this font retains full rights under the law"
FONT_ASCENT  5
FONT_DESCENT 2
ENDPROPERTIES
CHARS 108
STARTCHAR C040
ENCODING 32
SWIDTH 307 0
DWIDTH 4 0
BBX 0 0 0 0
BITMAP
ENDCHAR
STARTCHAR C041
ENCODING 33
SWIDTH 307 0
DWIDTH 4 0
BBX 1 6 1 -1
BITMAP
80
80
80
00
80
80
ENDCHAR
STARTCHAR C042
ENCODING 34
SWIDTH 307 0
DWIDTH 4 0
BBX 3 3 0 2
BITMAP
a0
a0
a0
ENDCHAR
STARTCHAR C043
ENCODING 35
SWIDTH 307 0
DWIDTH 4 0
BBX 3 5 0 -1
BITMAP
a0
e0
a0
e0
a0
ENDCHAR
STARTCHAR C044
ENCODING 36
SWIDTH 307 0
DWIDTH 4 0
BBX 3 7 0 -2
BITMAP
40
e0
80
e0
20
e0
40
ENDCHAR
STARTCHAR C045
ENCODING 37
SWIDTH 307 0
DWIDTH 4 0
BBX 3 5 0 -1
BITMAP
80
20
40
80
20
ENDCHAR
STARTCHAR C046
ENCODING 38
SWIDTH 307 0
DWIDTH 4 0
BBX 3 5 0 0
BITMAP
c0
c0
e0
c0
a0
ENDCHAR
STARTCHAR C047
ENCODING 39
SWIDTH 307 0
DWIDTH 4 0
BBX 1 3 1 2
BITMAP
80
80
80
ENDCHAR
STARTCHAR C050
ENCODING 40
SWIDTH 307 0
DWIDTH 4 0
BBX 3 7 0 -2
BITMAP
20
40
80
80
80
40
20
ENDCHAR
STARTCHAR C051
ENCODING 41
SWIDTH 307 0
DWIDTH 4 0
BBX 3 7 0 -2
BITMAP
80
40
20
20
20
40
80
ENDCHAR
STARTCHAR C052
ENCODING 42
SWIDTH 307 0
DWIDTH 4 0
BBX 3 3 0 2
BITMAP
a0
40
a0
ENDCHAR
STARTCHAR C053
ENCODING 43
SWIDTH 307 0
DWIDTH 4 0
BBX 3 3 0 0
BITMAP
40
e0
40
ENDCHAR
STARTCHAR C054
ENCODING 44
SWIDTH 307 0
DWIDTH 4 0
BBX 2 3 0 -2
BITMAP
40
40
80
ENDCHAR
STARTCHAR C055
ENCODING 45
SWIDTH 307 0
DWIDTH 4 0
BBX 3 1 0 1
BITMAP
e0
ENDCHAR
STARTCHAR C056
ENCODING 46
SWIDTH 307 0
DWIDTH 4 0
BBX 1 2 1 -1
BITMAP
80
80
ENDCHAR
STARTCHAR C057
ENCODING 47
SWIDTH 307 0
DWIDTH 4 0
BBX 3 6 0 -1
BITMAP
20
20
40
40
80
80
ENDCHAR
STARTCHAR C060
ENCODING 48
SWIDTH 307 0
DWIDTH 4 0
BBX 3 3 0 0
BITMAP
e0
a0
e0
ENDCHAR
STARTCHAR C061
ENCODING 49
SWIDTH 307 0
DWIDTH 4 0
BBX 3 5 0 0
BITMAP
20
60
a0
20
20
ENDCHAR
STARTCHAR C062
ENCODING 50
SWIDTH 307 0
DWIDTH 4 0
BBX 3 5 0 0
BITMAP
40
a0
20
40
e0
ENDCHAR
STARTCHAR C063
ENCODING 51
SWIDTH 307 0
DWIDTH 4 0
BBX 3 5 0 0
BITMAP
e0
20
e0
20
e0
ENDCHAR
STARTCHAR C064
ENCODING 52
SWIDTH 307 0
DWIDTH 4 0
BBX 3 5 0 -1
BITMAP
20
40
a0
e0
20
ENDCHAR
STARTCHAR C065
ENCODING 53
SWIDTH 307 0
DWIDTH 4 0
BBX 3 6 0 -1
BITMAP
e0
80
c0
20
20
c0
ENDCHAR
STARTCHAR C066
ENCODING 54
SWIDTH 307 0
DWIDTH 4 0
BBX 3 6 0 -1
BITMAP
20
40
80
e0
a0
e0
ENDCHAR
STARTCHAR C067
ENCODING 55
SWIDTH 307 0
DWIDTH 4 0
BBX 3 6 0 -1
BITMAP
e0
20
40
40
80
80
ENDCHAR
STARTCHAR C070
ENCODING 56
SWIDTH 307 0
DWIDTH 4 0
BBX 3 5 0 0
BITMAP
e0
a0
e0
a0
e0
ENDCHAR
STARTCHAR C071
ENCODING 57
SWIDTH 307 0
DWIDTH 4 0
BBX 3 7 0 -2
BITMAP
e0
a0
e0
20
20
40
80
ENDCHAR
STARTCHAR C072
ENCODING 58
SWIDTH 307 0
DWIDTH 4 0
BBX 1 5 1 -1
BITMAP
80
80
00
80
80
ENDCHAR
STARTCHAR C073
ENCODING 59
SWIDTH 307 0
DWIDTH 4 0
BBX 2 6 0 -2
BITMAP
40
40
00
40
40
80
ENDCHAR
STARTCHAR C074
ENCODING 60
SWIDTH 307 0
DWIDTH 4 0
BBX 3 5 0 -1
BITMAP
20
40
80
40
20
ENDCHAR
STARTCHAR C075
ENCODING 61
SWIDTH 307 0
DWIDTH 4 0
BBX 3 3 0 0
BITMAP
e0
00
e0
ENDCHAR
STARTCHAR C076
ENCODING 62
SWIDTH 307 0
DWIDTH 4 0
BBX 3 5 0 -1
BITMAP
80
40
20
40
80
ENDCHAR
STARTCHAR C077
ENCODING 63
SWIDTH 307 0
DWIDTH 4 0
BBX 3 6 0 -1
BITMAP
40
a0
20
40
00
40
ENDCHAR
STARTCHAR C100
ENCODING 64
SWIDTH 307 0
DWIDTH 4 0
BBX 3 5 0 -2
BITMAP
e0
a0
a0
80
e0
ENDCHAR
STARTCHAR C101
ENCODING 65
SWIDTH 307 0
DWIDTH 4 0
BBX 3 5 0 0
BITMAP
60
a0
e0
a0
a0
ENDCHAR
STARTCHAR C102
ENCODING 66
SWIDTH 307 0
DWIDTH 4 0
BBX 3 5 0 0
BITMAP
c0
a0
e0
a0
e0
ENDCHAR
STARTCHAR C103
ENCODING 67
SWIDTH 307 0
DWIDTH 4 0
BBX 3 5 0 0
BITMAP
60
80
80
80
60
ENDCHAR
STARTCHAR C104
ENCODING 68
SWIDTH 307 0
DWIDTH 4 0
BBX 3 4 0 1
BITMAP
c0
a0
a0
e0
ENDCHAR
STARTCHAR C105
ENCODING 69
SWIDTH 307 0
DWIDTH 4 0
BBX 3 5 0 0
BITMAP
e0
80
c0
80
e0
ENDCHAR
STARTCHAR C106
ENCODING 70
SWIDTH 307 0
DWIDTH 4 0
BBX 3 5 0 0
BITMAP
e0
80
c0
80
80
ENDCHAR
STARTCHAR C107
ENCODING 71
SWIDTH 307 0
DWIDTH 4 0
BBX 3 7 0 -2
BITMAP
60
80
80
a0
e0
20
e0
ENDCHAR
STARTCHAR C110
ENCODING 72
SWIDTH 307 0
DWIDTH 4 0
BBX 3 5 0 0
BITMAP
a0
a0
e0
a0
a0
ENDCHAR
STARTCHAR C111
ENCODING 73
SWIDTH 307 0
DWIDTH 4 0
BBX 3 5 0 0
BITMAP
e0
40
40
40
e0
ENDCHAR
STARTCHAR C112
ENCODING 74
SWIDTH 307 0
DWIDTH 4 0
BBX 3 7 0 -2
BITMAP
20
60
20
20
20
40
80
ENDCHAR
STARTCHAR C113
ENCODING 75
SWIDTH 307 0
DWIDTH 4 0
BBX 3 5 0 0
BITMAP
a0
a0
c0
a0
a0
ENDCHAR
STARTCHAR C114
ENCODING 76
SWIDTH 307 0
DWIDTH 4 0
BBX 3 5 0 0
BITMAP
80
80
80
80
e0
ENDCHAR
STARTCHAR C115
ENCODING 77
SWIDTH 307 0
DWIDTH 4 0
BBX 3 5 0 0
BITMAP
a0
e0
e0
a0
a0
ENDCHAR
STARTCHAR C116
ENCODING 78
SWIDTH 307 0
DWIDTH 4 0
BBX 3 5 0 0
BITMAP
a0
e0
e0
e0
a0
ENDCHAR
STARTCHAR C117
ENCODING 79
SWIDTH 307 0
DWIDTH 4 0
BBX 3 5 0 0
BITMAP
e0
a0
a0
a0
e0
ENDCHAR
STARTCHAR C120
ENCODING 80
SWIDTH 307 0
DWIDTH 4 0
BBX 3 5 0 0
BITMAP
e0
a0
e0
80
80
ENDCHAR
STARTCHAR C121
ENCODING 81
SWIDTH 307 0
DWIDTH 4 0
BBX 3 7 0 -2
BITMAP
e0
a0
a0
a0
e0
40
20
ENDCHAR
STARTCHAR C122
ENCODING 82
SWIDTH 307 0
DWIDTH 4 0
BBX 3 5 0 0
BITMAP
e0
a0
e0
c0
a0
ENDCHAR
STARTCHAR C123
ENCODING 83
SWIDTH 307 0
DWIDTH 4 0
BBX 3 5 0 0
BITMAP
e0
80
e0
20
e0
ENDCHAR
STARTCHAR C124
ENCODING 84
SWIDTH 307 0
DWIDTH 4 0
BBX 3 5 0 0
BITMAP
e0
40
40
40
40
ENDCHAR
STARTCHAR C125
ENCODING 85
SWIDTH 307 0
DWIDTH 4 0
BBX 3 5 0 0
BITMAP
a0
a0
a0
a0
e0
ENDCHAR
STARTCHAR C126
ENCODING 86
SWIDTH 307 0
DWIDTH 4 0
BBX 3 5 0 0
BITMAP
a0
a0
a0
40
40
ENDCHAR
STARTCHAR C127
ENCODING 87
SWIDTH 307 0
DWIDTH 4 0
BBX 3 5 0 0
BITMAP
a0
a0
e0
e0
a0
ENDCHAR
STARTCHAR C130
ENCODING 88
SWIDTH 307 0
DWIDTH 4 0
BBX 3 5 0 0
BITMAP
a0
a0
40
a0
a0
ENDCHAR
STARTCHAR C131
ENCODING 89
SWIDTH 307 0
DWIDTH 4 0
BBX 3 7 0 -2
BITMAP
a0
a0
a0
e0
20
20
e0
ENDCHAR
STARTCHAR C132
ENCODING 90
SWIDTH 307 0
DWIDTH 4 0
BBX 3 5 0 0
BITMAP
e0
20
40
80
e0
ENDCHAR
STARTCHAR C133
ENCODING 91
SWIDTH 307 0
DWIDTH 4 0
BBX 3 6 0 -1
BITMAP
e0
80
80
80
80
e0
ENDCHAR
STARTCHAR C134
ENCODING 92
SWIDTH 307 0
DWIDTH 4 0
BBX 3 6 0 -1
BITMAP
80
80
40
40
20
20
ENDCHAR
STARTCHAR C135
ENCODING 93
SWIDTH 307 0
DWIDTH 4 0
BBX 3 6 0 -1
BITMAP
e0
20
20
20
20
e0
ENDCHAR
STARTCHAR C136
ENCODING 94
SWIDTH 307 0
DWIDTH 4 0
BBX 3 2 0 3
BITMAP
40
a0
ENDCHAR
STARTCHAR C137
ENCODING 95
SWIDTH 307 0
DWIDTH 4 0
BBX 3 1 0 0
BITMAP
e0
ENDCHAR
STARTCHAR C140
ENCODING 96
SWIDTH 307 0
DWIDTH 4 0
BBX 2 2 0 3
BITMAP
80
40
ENDCHAR
STARTCHAR C141
ENCODING 97
SWIDTH 307 0
DWIDTH 4 0
BBX 3 3 0 0
BITMAP
60
a0
e0
ENDCHAR
STARTCHAR C142
ENCODING 98
SWIDTH 307 0
DWIDTH 4 0
BBX 3 5 0 0
BITMAP
80
80
e0
a0
c0
ENDCHAR
STARTCHAR C143
ENCODING 99
SWIDTH 307 0
DWIDTH 4 0
BBX 3 3 0 0
BITMAP
e0
80
e0
ENDCHAR
STARTCHAR C144
ENCODING 100
SWIDTH 307 0
DWIDTH 4 0
BBX 3 4 0 0
BITMAP
20
e0
a0
e0
ENDCHAR
STARTCHAR C145
ENCODING 101
SWIDTH 307 0
DWIDTH 4 0
BBX 3 3 0 0
BITMAP
c0
c0
e0
ENDCHAR
STARTCHAR C146
ENCODING 102
SWIDTH 307 0
DWIDTH 4 0
BBX 3 7 0 -2
BITMAP
60
40
40
e0
40
40
c0
ENDCHAR
STARTCHAR C147
ENCODING 103
SWIDTH 307 0
DWIDTH 4 0
BBX 3 5 0 -2
BITMAP
60
a0
e0
20
c0
ENDCHAR
STARTCHAR C150
ENCODING 104
SWIDTH 307 0
DWIDTH 4 0
BBX 3 5 0 0
BITMAP
80
80
e0
a0
a0
ENDCHAR
STARTCHAR C151
ENCODING 105
SWIDTH 307 0
DWIDTH 4 0
BBX 2 5 0 0
BITMAP
40
00
40
c0
40
ENDCHAR
STARTCHAR C152
ENCODING 106
SWIDTH 307 0
DWIDTH 4 0
BBX 3 7 0 -2
BITMAP
20
00
20
60
20
40
80
ENDCHAR
STARTCHAR C153
ENCODING 107
SWIDTH 307 0
DWIDTH 4 0
BBX 3 5 0 0
BITMAP
80
80
a0
c0
a0
ENDCHAR
STARTCHAR C154
ENCODING 108
SWIDTH 307 0
DWIDTH 4 0
BBX 2 5 1 0
BITMAP
c0
80
80
80
80
ENDCHAR
STARTCHAR C155
ENCODING 109
SWIDTH 307 0
DWIDTH 4 0
BBX 3 3 0 0
BITMAP
e0
e0
a0
ENDCHAR
STARTCHAR C156
ENCODING 110
SWIDTH 307 0
DWIDTH 4 0
BBX 3 3 0 0
BITMAP
a0
e0
a0
ENDCHAR
STARTCHAR C157
ENCODING 111
SWIDTH 307 0
DWIDTH 4 0
BBX 3 3 0 0
BITMAP
60
a0
c0
ENDCHAR
STARTCHAR C160
ENCODING 112
SWIDTH 307 0
DWIDTH 4 0
BBX 3 5 0 -2
BITMAP
e0
a0
c0
80
80
ENDCHAR
STARTCHAR C161
ENCODING 113
SWIDTH 307 0
DWIDTH 4 0
BBX 3 5 0 -2
BITMAP
e0
a0
e0
20
20
ENDCHAR
STARTCHAR C162
ENCODING 114
SWIDTH 307 0
DWIDTH 4 0
BBX 2 3 1 0
BITMAP
c0
80
80
ENDCHAR
STARTCHAR C163
ENCODING 115
SWIDTH 307 0
DWIDTH 4 0
BBX 3 3 0 0
BITMAP
60
40
c0
ENDCHAR
STARTCHAR C164
ENCODING 116
SWIDTH 307 0
DWIDTH 4 0
BBX 2 4 1 0
BITMAP
80
c0
80
c0
ENDCHAR
STARTCHAR C165
ENCODING 117
SWIDTH 307 0
DWIDTH 4 0
BBX 3 3 0 0
BITMAP
a0
a0
e0
ENDCHAR
STARTCHAR C166
ENCODING 118
SWIDTH 307 0
DWIDTH 4 0
BBX 3 3 0 0
BITMAP
a0
40
40
ENDCHAR
STARTCHAR C167
ENCODING 119
SWIDTH 307 0
DWIDTH 4 0
BBX 3 3 0 0
BITMAP
a0
e0
e0
ENDCHAR
STARTCHAR C170
ENCODING 120
SWIDTH 307 0
DWIDTH 4 0
BBX 3 3 0 0
BITMAP
a0
40
a0
ENDCHAR
STARTCHAR C171
ENCODING 121
SWIDTH 307 0
DWIDTH 4 0
BBX 3 5 0 -2
BITMAP
a0
a0
60
40
80
ENDCHAR
STARTCHAR C172
ENCODING 122
SWIDTH 307 0
DWIDTH 4 0
BBX 3 4 0 -1
BITMAP
e0
40
e0
80
ENDCHAR
STARTCHAR C173
ENCODING 123
SWIDTH 307 0
DWIDTH 4 0
BBX 3 7 0 -2
BITMAP
60
40
40
80
40
40
60
ENDCHAR
STARTCHAR C174
ENCODING 124
SWIDTH 307 0
DWIDTH 4 0
BBX 1 7 1 -2
BITMAP
80
80
80
80
80
80
80
ENDCHAR
STARTCHAR C175
ENCODING 125
SWIDTH 307 0
DWIDTH 4 0
BBX 3 7 0 -2
BITMAP
c0
40
40
20
40
40
c0
ENDCHAR
STARTCHAR C176
ENCODING 126
SWIDTH 307 0
DWIDTH 4 0
BBX 3 3 0 1
BITMAP
20
e0
80
ENDCHAR
STARTCHAR C200
ENCODING 128
SWIDTH 307 0
DWIDTH 4 0
BBX 3 7 0 -2
BITMAP
20
40
80
80
80
40
20
ENDCHAR
STARTCHAR C201
ENCODING 129
SWIDTH 307 0
DWIDTH 4 0
BBX 3 7 0 -2
BITMAP
80
40
20
20
20
40
80
ENDCHAR
STARTCHAR C253
ENCODING 171
SWIDTH 307 0
DWIDTH 4 0
BBX 4 3 0 0
BITMAP
50
a0
50
ENDCHAR
STARTCHAR C254
ENCODING 172
SWIDTH 307 0
DWIDTH 4 0
BBX 3 2 0 1
BITMAP
e0
20
ENDCHAR
STARTCHAR C255
ENCODING 173
SWIDTH 307 0
DWIDTH 4 0
BBX 2 1 0 1
BITMAP
c0
ENDCHAR
STARTCHAR C257
ENCODING 175
SWIDTH 307 0
DWIDTH 4 0
BBX 3 1 0 4
BITMAP
e0
ENDCHAR
STARTCHAR C260
ENCODING 176
SWIDTH 307 0
DWIDTH 4 0
BBX 3 3 0 2
BITMAP
40
a0
40
ENDCHAR
STARTCHAR C261
ENCODING 177
SWIDTH 307 0
DWIDTH 4 0
BBX 3 4 0 0
BITMAP
40
e0
40
e0
ENDCHAR
STARTCHAR C264
ENCODING 180
SWIDTH 307 0
DWIDTH 4 0
BBX 2 2 1 3
BITMAP
40
80
ENDCHAR
STARTCHAR C265
ENCODING 181
SWIDTH 307 0
DWIDTH 4 0
BBX 3 5 0 -2
BITMAP
a0
a0
e0
80
80
ENDCHAR
STARTCHAR C267
ENCODING 183
SWIDTH 307 0
DWIDTH 4 0
BBX 1 2 1 1
BITMAP
80
80
ENDCHAR
STARTCHAR C270
ENCODING 184
SWIDTH 307 0
DWIDTH 4 0
BBX 2 2 0 -2
BITMAP
40
80
ENDCHAR
STARTCHAR C273
ENCODING 187
SWIDTH 307 0
DWIDTH 4 0
BBX 4 3 0 0
BITMAP
a0
50
a0
ENDCHAR
ENDFONT
